# xmcd
#
# Track frame offsets:
#	183
#	13893
#	26828
#	39735
#	53120
#	65025
#	78660
#	91730
#	103035
#	115993
#	129450
#	141513
#	153283
#	165103
#	175418
#	187895
#	198183
#	208233
#
# Disc length: 2932 seconds
#
# Revision: 4
# Processed by: cddbd v1.5.1PL0 Copyright (c) Steve Scherf et al.
# Submitted via: CDmax 2.0
#
DISCID=fb0b7212
DTITLE=Robert Johnson - The Blues Collection #  6: Red Hot Blues
DYEAR=1900
DGENRE=Blues
TTITLE0=Sweet Home Chicago
TTITLE1=Ramblin' On My Mind
TTITLE2=Kind Hearted Woman Blues
TTITLE3=I Believe I'll Dust My Broom
TTITLE4=When You Got A Good Friend
TTITLE5=Terraplane Blues
TTITLE6=32-20 Blues
TTITLE7=Walkin' Blues
TTITLE8=Preachin' Blues
TTITLE9=They're Red Hot
TTITLE10=Phonograph Blues
TTITLE11=If I Had Possession Over Judgement Day
TTITLE12=I'm A Steady Rollin' Man
TTITLE13=Stop Breakin' Down Blues
TTITLE14=Travelling Riverside Blues
TTITLE15=Milkcow's Calf Blues
TTITLE16=Little Queen Of Spades
TTITLE17=Me And The Devil Blues
EXTD=
EXTT0=
EXTT1=
EXTT2=
EXTT3=
EXTT4=
EXTT5=
EXTT6=
EXTT7=
EXTT8=
EXTT9=
EXTT10=
EXTT11=
EXTT12=
EXTT13=
EXTT14=
EXTT15=
EXTT16=
EXTT17=
PLAYORDER=
